<svg id="Layer_1" data-name="Layer 1" xmlns="http://www.w3.org/2000/svg" viewBox="0 0 568.26 374.18"><defs><style>.cls-1,.cls-8{fill:#000d84;}.cls-2{fill:#fff;}.cls-3{opacity:0.34;}.cls-4{fill:#008710;}.cls-5{font-size:38.95px;fill:#696977;font-family:SulphurPoint-Regular, SulphurPoint Regular;letter-spacing:0.2em;}.cls-6{letter-spacing:0.16em;}.cls-7{letter-spacing:0.2em;}.cls-8{font-size:69.52px;font-family:SulphurPoint-Bold, SulphurPoint Bold;font-weight:700;letter-spacing:0.05em;}</style></defs><ellipse class="cls-1" cx="270.35" cy="193.25" rx="270.33" ry="180.92"/><path class="cls-2" d="M801.81,537.1C785.23,650.23,600.18,678.09,561.25,668A91.12,91.12,0,0,1,544,661.58C518.39,646.43,516.23,613,452,581.21c-60.62-30-97.22-19.05-130-47.55-45.15-39.29-18.51-97.77-14.66-105.84C351,336.28,495.87,321.28,513.17,320.11c31.62-2.14,115.57-6.56,191.92,50.75C723.54,384.71,814.17,452.75,801.81,537.1Z" transform="translate(-234.69 -308.9)"/><g class="cls-3"><ellipse class="cls-4" cx="270.35" cy="193.25" rx="270.33" ry="180.92"/><path class="cls-2" d="M794.23,494.81c4.56,65.45-53.48,137.22-145.54,164.37-13.36,3.94-94.14,27.75-147.71,3.26-58.54-26.76-21.73-79.56-85.74-116C361.85,516,299.33,532.13,275.34,500c-11.25-15-10.51-36,3-51.31,32.94-37.39,117.84-13.59,173.84-51,48.27-32.2,17.22-71.24,51.24-84.64C565.64,288.61,785.78,373.52,794.23,494.81Z" transform="translate(-234.69 -308.9)"/></g><text class="cls-5" transform="translate(306.01 249.7)">SO<tspan class="cls-6" x="61.62" y="0">L</tspan><tspan class="cls-7" x="86.39" y="0">UTION</tspan></text><text class="cls-8" transform="translate(105.74 196.34)">GlobalSupply</text></svg>