<svg width="156" height="38" viewBox="0 0 156 38" fill="none" xmlns="http://www.w3.org/2000/svg">
<path d="M28.501 9.50322L19.0064 0L0 18.9892L18.9892 37.9956L28.4924 28.501L18.9978 18.9978L28.501 9.50322Z" fill="#21ADD1"/>
<path d="M28.4889 28.5011L37.9878 38L56.9856 19.0022L37.9878 0.00436482L28.4889 9.50326L37.9878 19.0022L28.4889 28.5011Z" fill="#DB3540"/>
<path d="M69.3274 6.68406H73.2305L80.0166 23.2539H80.2664L87.0526 6.68406H90.9556V28H87.8956V12.5751H87.6979L81.4113 27.9688H78.8717L72.5852 12.5647H72.3874V28H69.3274V6.68406ZM109.339 6.68406H112.566V20.7039C112.566 22.1957 112.215 23.5175 111.514 24.6694C110.814 25.8143 109.828 26.7163 108.558 27.3755C107.289 28.0278 105.8 28.3539 104.093 28.3539C102.393 28.3539 100.908 28.0278 99.6386 27.3755C98.3688 26.7163 97.3835 25.8143 96.6827 24.6694C95.9819 23.5175 95.6315 22.1957 95.6315 20.7039V6.68406H98.8476V20.4437C98.8476 21.4082 99.0593 22.2651 99.4825 23.0145C99.9127 23.7639 100.52 24.3537 101.304 24.7839C102.088 25.2071 103.018 25.4188 104.093 25.4188C105.176 25.4188 106.109 25.2071 106.893 24.7839C107.684 24.3537 108.288 23.7639 108.704 23.0145C109.127 22.2651 109.339 21.4082 109.339 20.4437V6.68406ZM117.241 28V6.68406H120.458V25.2314H130.116V28H117.241ZM129.958 9.45263V6.68406H146.455V9.45263H139.804V28H136.598V9.45263H129.958ZM153.316 6.68406V28H150.1V6.68406H153.316Z" fill="#1C1B19"/>
</svg>
